<?xml version="1.0" encoding="UTF-8"?>
<!DOCTYPE svg PUBLIC "-//W3C//DTD SVG 1.1//EN" "http://www.w3.org/Graphics/SVG/1.1/DTD/svg11.dtd">
<!-- Creator: CorelDRAW -->
<svg xmlns="http://www.w3.org/2000/svg" xml:space="preserve" width="8.5in" height="11in" version="1.1" style="shape-rendering:geometricPrecision; text-rendering:geometricPrecision; image-rendering:optimizeQuality; fill-rule:evenodd; clip-rule:evenodd"
viewBox="0 0 8500 11000"
 xmlns:xlink="http://www.w3.org/1999/xlink">
 <defs>
  <style type="text/css">
   <![CDATA[
    .str1 {stroke:#00A859;stroke-width:29.3071}
    .str0 {stroke:#00A859;stroke-width:46.9055}
    .str2 {stroke:#373435;stroke-width:5.86614}
    .fil2 {fill:none}
    .fil5 {fill:#FEFEFE}
    .fil1 {fill:#FFF212}
    .fil3 {fill:#00A859}
    .fil7 {fill:black}
    .fil4 {fill:#008C31}
    .fil0 {fill:#17169F}
    .fil6 {fill:#FEFEFE;fill-rule:nonzero}
   ]]>
  </style>
 </defs>
 <g id="Layer_x0020_1">
  <metadata id="CorelCorpID_0Corel-Layer"/>
  <g id="Unismuh_x0020_Makassar_x0020__x005b_koleksilogo.com_x005d_.cdr">
   <path class="fil0" d="M4250 8065c-397,334 -1081,-172 -1711,1 -28,-596 -702,-1215 -501,-1612 -428,-267 -144,-965 -527,-1600 725,-308 806,-966 1377,-980 77,-451 949,-489 1362,-999 413,510 1285,548 1362,999 571,14 652,672 1377,980 -383,635 -99,1333 -527,1600 202,397 -473,1016 -501,1612 -630,-173 -1314,333 -1711,-1z"/>
   <path class="fil1" d="M4250 7884c-280,403 -1017,-84 -1596,27 -25,-221 -155,-479 -291,-718 -165,-289 -325,-558 -146,-795 -294,-102 -309,-416 -345,-757 -21,-253 -64,-501 -175,-727 275,-146 446,-348 631,-550 210,-218 384,-429 671,-338 22,-255 90,-326 569,-546 332,-142 521,-254 682,-408 161,154 350,266 682,408 479,220 547,291 569,546 287,-91 461,120 671,338 185,202 356,404 631,550 -111,226 -154,474 -175,727 -36,341 -51,655 -345,757 179,237 19,506 -146,795 -136,239 -266,497 -291,718 -579,-111 -1316,376 -1596,-27zm0 127c-378,359 -1103,-157 -1684,10 16,-556 -709,-1159 -475,-1584 -433,-226 -195,-1056 -519,-1567 572,-232 881,-1034 1348,-951 23,-269 405,-430 609,-521 330,-131 574,-295 721,-458 147,163 391,327 721,458 204,91 586,252 609,521 467,-83 776,719 1348,951 -324,511 -86,1341 -519,1567 234,425 -491,1028 -475,1584 -581,-167 -1306,349 -1684,-10z"/>
   <path class="fil2 str0" d="M3515 4608l-173 138 -103 89 -124 138 -55 90 -173 620c-46,168 18,385 38,538 57,217 357,526 493,662 167,167 224,116 413,230"/>
   <path class="fil1 str1" d="M3797 7100c-89,115 -327,82 -461,-50 246,-9 292,-82 461,50zm10 -32c11,-144 -131,-250 -295,-265 165,183 90,228 295,265zm-305 -150c46,-137 -65,-274 -221,-329 71,134 66,195 97,243 36,13 72,37 114,81l10 5zm7 13c-109,98 -337,23 -446,-131 244,35 303,-29 446,131zm-256 -212c-154,73 -344,-93 -370,-210 200,82 244,40 370,210zm-197 -259c-199,26 -314,-223 -291,-280 174,131 242,113 291,280zm5 -44c106,-118 38,-265 -47,-355 5,211 -61,187 47,355zm-154 -256c-186,-31 -221,-284 -185,-329 121,165 187,167 185,329zm17 -38c128,-76 108,-226 55,-329 -53,189 -106,149 -55,329zm-62 -269c-177,-68 -157,-316 -111,-350 83,181 148,197 111,350zm24 -32c142,-46 155,-192 126,-301 -94,168 -137,120 -126,301zm-6 -279c-151,-110 -73,-345 -22,-367 36,196 93,228 22,367zm31 -25c145,-10 192,-148 190,-261 -128,140 -158,82 -190,261zm63 -272c-122,-156 22,-373 78,-379 -25,198 32,267 -78,379zm34 -33c142,35 219,-87 251,-196 -165,96 -166,36 -251,196zm120 -252c-65,-196 129,-355 184,-344 -81,182 -47,269 -184,344zm33 -12c126,74 245,-35 306,-129 -185,44 -175,-14 -306,129zm327 -305c73,-213 362,-216 403,-177 -139,81 -174,151 -278,173 -60,-4 -94,-2 -117,5l-8 -1zm-243 2041c84,-143 -18,-275 -126,-344 51,209 -23,200 126,344zm106 -1988c-16,-208 213,-312 263,-284 -125,172 -111,244 -263,284zm16 23c103,116 253,11 337,-73 -282,-28 -197,10 -337,73z"/>
   <polyline class="fil2 str2" points="4982,4726 4982,4726 4983,4726 "/>
   <path class="fil2 str2" d="M4903 4709l6 2 0 0 0 0 7 1 0 0 1 1 0 0 0 0 1 0 1 0 1 0 2 1 0 0 0 0 1 0 3 1 0 0 1 0 0 0 2 1 0 0 1 0 1 0 0 0 2 1 0 0 1 0 1 0 0 0 1 0 1 1 0 0 0 0 2 0 0 0 1 0 0 0 1 1 2 0 1 0 1 0 1 1 0 0 1 0 0 0 1 0 0 0 3 1 0 0 1 0c8,2 17,3 25,4"/>
   <path class="fil2 str2" d="M5129 4881l6 3 0 0 0 1 4 1 2 1 0 0 1 0 1 1 2 1 0 0 1 0 0 1 1 0 1 1 2 0 5 3 0 0 1 0 1 1 2 1 0 0 1 0 1 0 1 1 0 0 1 0 0 0 1 1 1 0 0 0 1 1 1 0 0 0 2 1 1 0 0 0 6 3 1 0 0 0 1 1 1 0 0 0 1 1 1 0 1 0 0 0c5,2 9,4 14,5l0 0 1 1 3 1 0 0 1 0 0 0 0 0 2 1 2 0 0 0 1 1 0 0 0 0 2 0 0 0 2 1 0 0 0 0c4,1 8,2 12,3l1 1 1 0 1 0 0 0 1 0 3 1 -1 0"/>
   <g>
    <path class="fil3" d="M4822 7086c-87,33 -301,76 -412,88 123,26 201,68 284,116 -23,11 -35,39 -58,62 -288,-197 -484,-197 -772,0 -23,-23 -35,-51 -58,-62 83,-48 161,-90 284,-116 -94,-16 -188,-33 -283,-49 7,-10 14,-18 21,-28 286,70 771,58 986,-44l-3 -12c19,-182 87,-259 189,-266 -30,45 -55,89 -69,133 42,-1 86,2 132,17 -13,39 -28,74 -49,113 52,3 103,9 155,0 -63,101 -171,129 -347,50l0 -2zm394 -508c-29,48 -42,94 -40,136 38,-8 77,-12 121,-6 -5,39 -13,73 -26,113 48,-5 94,-8 139,-26 -32,85 -99,130 -213,121 24,-60 -39,-127 -101,-102 -3,-2 -6,-4 -8,-6 0,-139 47,-209 128,-230zm153 -222c-11,47 -18,93 -15,135 35,-15 73,-26 117,-28 2,38 0,72 -5,111 45,-14 91,-25 132,-49 -17,83 -73,138 -183,151 12,-59 -55,-111 -107,-77 -9,-5 -18,-10 -27,-13 -21,-125 14,-196 88,-230zm96 -241c3,46 9,90 23,128 29,-23 61,-43 102,-57 12,34 20,66 26,104 39,-25 78,-47 110,-81 8,86 -34,153 -144,194 -7,-53 -76,-84 -119,-45 -5,-1 -10,-3 -14,-4 -57,-112 -45,-188 16,-239zm47 -265l1 6 0 0c7,25 15,49 24,71l0 1 1 3 0 0 1 2 0 0 1 1 0 1 1 1 0 0 0 2 0 0 1 0 2 5 0 0 1 2 0 0 0 1 1 1 0 1 1 1 0 1 1 1 0 1 1 1 0 1 1 1 0 0 0 1 1 1 0 1 1 1 0 0 1 2 0 0 1 1 0 1 1 1 0 0 1 1 0 1 1 1 0 0 1 2 0 0 1 1c22,-28 49,-55 85,-76 18,30 32,59 46,95l1 -1 0 0 1 -2 1 0 1 -1 0 0 1 -1 1 -1 1 -1 0 0 4 -4 2 -2 1 -1 1 -1 0 0 2 -3 1 0 0 0 0 0 2 -3 1 0 2 -2 2 -2 0 0 1 -1 0 -1 2 -2 2 -1 4 -5 1 -1 1 0 1 -1 0 -1 8 -8 0 -1 1 -1 1 0 1 -1 0 0c3,-4 6,-8 10,-11l0 -1 0 0 0 0c9,-10 17,-21 25,-33l0 0c1,-2 3,-5 5,-8 24,82 -2,157 -98,220 -17,-52 -96,-64 -126,-15l-6 0c-80,-100 -85,-178 -36,-242zm-10 -256l3 6 0 0c12,22 24,43 38,62l1 0 1 3 1 0 1 1 0 1 1 1 0 0 1 1 0 0 1 2 0 0 0 0 3 4 1 0 1 2 0 0 1 1 0 0 1 1 0 1 1 1 1 1 1 1 0 1 1 0 0 1 1 1 1 0 0 1 1 0 1 1 0 1 1 1 0 0 1 1 0 0 1 1 1 1 1 1 0 0 1 1 0 0 1 1 0 0 1 2c15,-33 34,-65 62,-95 23,25 43,50 64,81l1 -2 0 0 1 -2 0 0 1 -1 0 -1 1 -1 0 0 1 -2 0 0 3 -5 1 -2 0 -1 1 -1 0 -1 2 -2 0 -1 0 0 0 0 2 -3 0 0 2 -3 1 -2 0 -1 1 -1 0 -1 1 -2 2 -2 3 -5 0 -1 0 -1 1 -1 0 0 6 -10 0 -1 1 -1 0 -1 1 -1 0 0c2,-4 4,-9 6,-13l0 -1 0 0 0 0c6,-12 11,-24 15,-37l0 0c1,-3 2,-6 3,-9 42,72 35,150 -39,234 -27,-45 -103,-38 -119,16l-6 2c-97,-76 -120,-150 -90,-223zm-69 -265l4 5 0 0c16,20 32,37 48,53l1 1 2 2 0 0 1 1 1 0 1 1 0 1 1 1 0 0 1 1 1 0 0 0 4 3 0 1 1 1 0 0 1 1 1 0 1 1 0 0 1 1 1 1 1 1 1 0 0 1 1 0 1 1 0 0 1 1 1 0 1 1 0 0 1 1 1 1 1 0 0 1 1 0 0 1 1 0 1 1 1 1 0 0 1 1 1 0 1 1c8,-35 21,-68 43,-102 28,20 51,40 77,67l0 -2 1 0 0 -2 0 0 1 -2 0 0 0 -2 1 0 0 -1 0 -1 2 -5 1 -3 0 0 1 -2 0 0 1 -3 0 0 0 -1 0 0 1 -3 0 0 1 -3 1 -2 0 -1 1 -1 0 -1 1 -2 1 -2 2 -6 0 -1 0 -1 1 -1 0 0 3 -11 0 -1 1 -1 0 0 0 -2 0 0c2,-4 3,-9 5,-14l0 0 0 0 0 0c3,-13 6,-25 8,-39l0 0c0,-3 1,-6 1,-9 53,63 60,138 3,232 -35,-39 -107,-19 -114,36l-5 3c-108,-56 -143,-124 -127,-199zm87 -223l0 0 -1 -1 0 0 -1 -1 0 0 -2 -1 0 0 -1 -1 0 0c-9,-6 -17,-12 -25,-17l0 0 -2 -1 0 0 -1 -1 0 0 -1 -1 0 0 -2 0 0 0 -1 -1 0 0 -1 -1 0 0 -2 -1 0 0 -1 -1 0 0 -1 -1 0 0 -2 0 0 0 -1 -1 0 0 -1 -1 0 0 -2 -1 0 0 -1 -1 0 0 -1 0 0 0 -2 -1 0 0 -1 -1 0 0 -1 -1 0 0 -1 0 0 0 -2 -1 0 0 -1 -1 0 0 -1 -1 0 0 -2 -1 0 0 -1 0 0 0 -1 -1 -2 -1 -1 -1 0 0 -2 0 0 0 -1 -1 0 0 -1 -1 0 0 -2 0 0 0 -1 -1 0 0 -1 -1 0 0 -2 -1 0 0 -1 0 0 0 -1 -1 0 0 -2 -1 -1 0 -2 -1 -1 -1 -1 -1 -1 2 -1 2 -1 1 0 0 -1 2 0 0 0 2 0 0 -1 1 0 0 -1 2 0 0 0 2 0 0 -1 1 0 0 -1 2 0 0 0 2 0 0 -1 1 0 0 -1 2 0 0 0 1 0 0 -1 2 0 0 -1 2 0 0 0 1 0 0 -1 2 0 0 0 2 0 0 -1 1 0 0 0 2 0 0 -1 2 0 0 0 1 0 0 -1 2 0 0 0 1 0 0 -1 2 0 0 0 2 0 0 -1 1 0 0 0 2 0 0 -1 2 0 0 0 1 0 0 -1 2 0 0 0 1 0 0 0 2 0 0 -1 2 0 0 0 1 0 0 -1 2 0 0 0 1 0 0 0 2 0 0 -1 2 0 0 0 1 0 0 0 2 0 0 -1 2 0 0 0 4 0 0 -1 2 0 0 0 2 0 0 0 1 0 0 -1 2 0 0 0 1 0 0 0 2 0 0 0 2 0 0 0 1 0 0 -1 2 0 0 0 2 0 0 0 1 0 0 0 2 0 0 0 1 0 0 -1 2 0 0 0 2 0 0 0 1 0 0 0 2 0 0 0 1 0 0 -2 0 0 0 -1 -1 0 0 -1 0 -1 -1 0 0 0 0 -1 -1 0 0 -1 0 -1 0 0 0 0 -1 -1 0 0 0 -1 0 -1 -1 0 0 -1 0 0 -1 0 0 -1 0 -1 -1 0 0 -1 0 0 -1 0 0 -1 0 -1 0 0 0 -1 -1 0 0 -1 0 0 -1 -1 0 -1 -1 -1 0 0 0 -1 -1 -2 -1 0 0 -1 -1 0 0 -5 -3 -1 -1 0 0 0 0 -2 -1 0 0 0 0 -1 -1 0 0 0 0 -2 -1 0 0 -1 -1 -1 -1 -1 0 -1 -1 0 0 -1 0 -2 -1 0 -1 0 0 -3 -2 0 0 -6 -4 -1 -1 -3 -2 0 0 0 -1 -1 0 -1 -1 -2 -1 -1 -1 0 0 -1 -1 -1 0 0 -1 -1 0 0 -1 -1 0 0 0 -1 -1 -1 0 0 -1 -1 0 -1 -2 -1 0 0 0 -1 -1 0 0 -1 -1 0 0 -2 -1 0 0 -1 -1 0 -1 -1 0 0 0 -1 -1 0 0 -1 -1 0 0 -1 -1 -1 0 0 0 -1 -1 0 -1 -1 0 -2 -2 0 0 -4 -4 -1 0 -5 -5 0 0 -5 -5c-5,75 52,138 167,177l5 -3c-1,-36 21,-60 48,-63 15,-6 32,-6 47,1 36,-93 22,-165 -37,-216 0,3 0,6 0,9l0 0 0 5 0 0 0 0 0 4 0 1 0 0 0 0 -17 106zm-287 -185l1 0 0 0 1 0 0 0 0 1 1 0 1 0 0 0 1 0 1 0 0 0 1 0 0 1 5 0 0 0 0 0c-2,-14 -4,-29 -5,-45l0 0 0 -2 0 0 0 -1 0 0 0 -2 0 0 0 -2 0 0 -1 -1 0 -2 0 0 0 -2 0 0 0 -1 0 0 0 -2 0 0 0 -2 0 0 0 -1 0 0 0 -2 0 0 0 -2 0 0 1 -1 0 0 0 -2 0 0 0 -2 0 0 0 -2 0 0 0 -1 0 0 0 -2 0 0 0 -2 0 0 0 -2 0 0 0 -1 0 0 0 -2 0 0 1 -2 0 0 0 -2 0 0 0 -1 0 0 0 -2 0 0 0 -2 0 0c1,-5 2,-9 3,-14l6 1 0 0 1 0 0 0 2 1 0 0 1 0 0 0 2 0 0 0 1 1 0 0 2 0 0 0 1 0 0 0 2 1 0 0 1 0 0 0 2 0 0 0 1 1 0 0 2 0 0 0 1 0 0 0 2 1 0 0 1 0 0 0 2 0 0 0 1 1 0 0 2 0 0 0 1 0 0 0 2 1 0 0 1 0 0 0 2 1 0 0 1 0 0 0 2 0 0 0 1 1 0 0 2 0 0 0 1 1 0 0 2 0 0 0 1 1 0 0 2 0 0 0 1 0 0 0 2 1 0 0c14,4 28,9 43,14l0 0 0 0c-1,-8 -2,-15 -2,-23l0 -1 0 0 0 0 -1 -1 0 -2 0 0 0 -3 0 -1 0 -2 0 0 0 0 0 -1 0 -1 0 0 -1 -3 0 0 0 -7 0 -1 0 0 0 -1 0 0 0 -2 -1 0 0 -1 0 -3 0 -2 -1 -4 0 -1 0 -1 0 -1 0 -1 0 -1 0 0 0 0 0 -3 0 0 -1 0 0 0 0 -2 0 0 0 -2 0 0 -1 -7 0 0 0 0 0 0 0 0 0 -1c-1,-3 -1,-6 -2,-10l0 0 -1 -3 0 0 0 0 0 -1 0 -3 0 0 0 0 0 -1 0 0 -1 -2 0 0 0 -1 0 0 0 -1 -1 -3 0 0 -1 -2 0 -1 0 0 0 -1 -2 -6 0 0 0 0 0 -2 0 0c-1,-3 -2,-6 -3,-8 71,32 98,116 87,217 -34,1 -66,31 -62,68l-9 1c-121,-5 -193,-50 -209,-124l104 40zm-249 -195l0 0 1 0 1 0 0 0 2 0 0 0 0 0 0 0 2 1 1 0 2 0 0 0 0 0 2 0 0 0 1 0 1 0 0 0 0 0 1 0 0 0 1 0 2 1 1 0 0 0 0 0 1 0 0 0 1 0 1 0 0 0 1 0 1 0 1 0 0 0 0 0 1 0 1 0 0 0 1 0 1 0 0 0 1 0 0 0 2 0 0 0 0 0 2 0 0 0 0 0 1 0 0 0 1 0 0 0 3 0 0 0 0 0c-6,-14 -11,-30 -14,-45l0 0 -1 -2 0 0 0 -2 0 0 0 -1 0 0 -1 -2 0 0 0 -1 0 0 0 -2 0 0 -1 -2 0 0 0 -1 0 0 0 -2 -1 -1 0 -2 0 -2 0 -1 0 0 -1 -2 0 0 0 -2 0 0 0 -1 0 0 0 -2 0 0 0 -2 0 0 -1 -1 0 0 0 -2 0 0 0 -2 0 0 0 -2 0 0c-1,-6 -1,-13 -1,-21l1 1 2 0 1 0 2 0 1 0 2 0 1 0 2 0 1 0 0 0 2 0 0 0 2 0 0 0 1 0 0 0 2 0 0 0 1 0 0 0 2 0 0 0 1 0 0 0 2 0 0 0 1 0 0 0 2 0 0 0 1 0 0 0c22,2 44,4 68,8l0 0 0 0c-2,-6 -4,-12 -5,-19l0 0 -1 -3 0 0 0 0 0 -1 -1 -1 0 -2 0 0 0 0 0 0 -1 -2 0 -1 -1 -2 0 0 0 0 0 0 0 -1 0 -1 0 0 -1 -2 0 -1 0 -1 0 -1 0 0 -1 -2 -1 -3 0 0 0 0 0 -1 0 0 -1 -2 0 0 0 0 0 -1 -1 -3 0 -1 -1 -2 -1 -3 0 0 0 0 0 -1 0 -1 -1 -1 0 -1 0 0 0 0 0 0 0 0 0 0 -1 -3 0 0 -1 -3 -2 -7 0 0 0 0 0 0 0 0 0 0 -1 -1 0 0c-1,-4 -3,-8 -4,-12l0 -1 0 0 -1 0 0 -1 -1 -1 0 -1 0 0 0 0 0 0 0 -1 0 0 -1 -1 0 0 0 0 0 -1 0 0 -2 -3 0 0 0 -1 0 0 0 0 -1 -1 0 -1 0 -1 0 0 0 0 -1 -2 0 0 -1 -1 0 0 0 0 0 -1 -1 -2 0 0 -1 -2 0 0c-2,-3 -3,-5 -4,-8 73,18 122,93 132,190 -35,9 -59,47 -46,83 -113,12 -215,-17 -242,-82l81 17zm-338 -138c130,109 203,39 247,2l0 -1 0 0c0,-8 2,-17 6,-24l0 -1 0 0 1 -2 0 0 1 -1 0 -1 0 0 1 -1 0 0 1 -2 0 0 0 -1 1 0 0 -1 0 0 1 -1 1 -1c1,-2 2,-3 4,-5l0 -1 2 -1 0 -1 1 -1 0 0 1 0 2 -2 1 -1c1,-1 2,-2 3,-3 -25,-153 -102,-179 -176,-176 2,2 4,4 6,6l0 0 0 1 1 0 0 1 0 0 0 0 1 0 0 1 0 0 1 0 0 0 0 1 0 0 0 0 1 1 0 0 2 2 0 0 0 1 6 6 0 0 0 0 0 1 0 0 1 0 2 3c3,4 6,7 8,11l0 0 0 0 0 0 0 1 1 0c2,3 5,7 7,11l0 0 0 0 1 1 0 1 1 1 0 0 0 0 0 0 4 6 0 0 0 0 0 0 2 3 0 0 1 1 0 0 0 1 0 0 1 1 0 0 0 1 0 0 2 2 0 0 0 0 1 2 1 1 1 3 0 0 1 0 0 1 1 1 1 2 1 2c5,8 9,16 14,23 -35,4 -65,10 -97,19 11,36 29,66 49,93 -34,10 -73,13 -113,14 -1,-1 -2,-2 -3,-3l-4 3z"/>
   </g>
   <path class="fil1" d="M3825 5274l-81 -111c-10,-4 -24,-12 -30,-6 -8,18 -5,34 13,63 21,27 47,53 68,80 10,-9 20,-18 30,-26zm-203 281c-42,-19 -85,-38 -128,-57 -10,1 -26,2 -29,10 2,18 13,31 43,47 33,14 68,24 101,38 4,-13 8,-25 13,-38zm4 -9c-74,-34 -150,-66 -224,-100 -21,-17 -38,-54 -38,-65 8,-13 40,-13 55,-9l226 131c-7,14 -14,29 -19,43zm26 -58c-121,-66 -243,-134 -363,-200 -14,-20 -40,-55 -35,-68 7,-11 42,-12 66,-8 121,75 244,145 365,219 -12,19 -23,38 -33,57zm37 -63l-217 -139c-9,-12 -31,-36 -26,-51 3,-11 61,-8 76,0l198 147c-11,14 -21,28 -31,43zm36 -49c-34,-25 -64,-52 -98,-77 -16,-15 -20,-21 -20,-38 13,-7 23,-9 51,5 31,26 62,53 92,79 -8,10 -17,21 -25,31zm108 -108c-47,-65 -97,-130 -143,-195 -10,-26 -7,-66 -2,-76 14,-7 42,9 53,20l130 223c-13,9 -26,18 -38,28zm52 -37c-72,-117 -144,-235 -216,-352 -2,-24 -7,-67 4,-76 11,-7 42,11 60,26 68,124 140,245 209,368 -20,11 -39,22 -57,34zm63 -37l-119 -226c-2,-16 -9,-47 3,-58 8,-8 57,24 66,38l99 224c-17,7 -33,14 -49,22zm56 -25c-16,-38 -30,-75 -46,-113 -7,-21 -8,-28 1,-43 15,0 25,4 42,29l41 114c-13,4 -26,8 -38,13zm93 -29c-3,-33 -11,-59 -20,-83 -9,21 -13,41 -11,63l0 0 0 1 0 0 0 0 0 1 1 0c2,6 4,11 6,17l0 1 1 0 0 1 0 1 0 0 0 0 1 1 0 1 0 2c8,-2 15,-4 22,-6zm-78 -67c26,4 43,34 56,73 -8,2 -17,4 -25,7l-31 -80zm-228 231c-17,-24 -36,-42 -54,-57 3,22 9,42 21,60 6,4 11,9 16,13 6,-5 12,-11 17,-16zm-96 -15c23,-9 51,6 79,31 -6,6 -12,13 -18,19l-61 -50zm433 -292c-9,-15 -19,-25 -32,-21 -6,8 -9,26 -12,47l20 116c13,-3 26,-6 39,-8l-15 -134zm3 -123c16,-28 41,-84 65,0l7 250c-17,1 -33,3 -49,5 -8,-87 -29,-217 -23,-255zm77 -167c3,-11 25,-52 42,-53l0 469 0 0c-11,0 -22,0 -33,0l-9 -416zm-605 892l0 13 -2 9c-36,-7 -63,-21 -74,-50 25,10 51,19 76,28zm1072 -325l81 -111c10,-4 24,-12 30,-6 8,18 5,34 -13,63 -21,27 -47,53 -68,80 -10,-9 -20,-18 -30,-26zm203 281c42,-19 85,-38 128,-57 11,1 26,2 29,10 -2,18 -13,31 -43,47 -32,14 -68,24 -101,38 -4,-13 -8,-25 -13,-38zm-4 -9c74,-34 150,-66 224,-100 21,-17 38,-54 39,-65 -9,-13 -41,-13 -56,-9l-226 131c7,14 14,29 19,43zm-26 -58c121,-66 243,-134 363,-200 14,-20 40,-55 35,-68 -7,-11 -42,-12 -66,-8 -121,75 -244,145 -365,219 12,19 23,38 33,57zm-37 -63l218 -139c8,-12 30,-36 25,-51 -3,-11 -61,-8 -76,0l-198 147c11,14 21,28 31,43zm-35 -49c33,-25 63,-52 97,-77 16,-15 20,-21 20,-38 -13,-7 -23,-9 -51,5 -31,26 -62,53 -92,79 9,10 17,21 26,31zm-109 -108c47,-65 97,-130 144,-195 9,-26 6,-66 1,-76 -14,-7 -42,9 -53,20l-130 223c13,9 26,18 38,28zm-52 -37c72,-117 144,-235 216,-352 2,-24 8,-67 -4,-76 -11,-7 -42,11 -60,26 -68,124 -140,245 -209,368 20,11 39,22 57,34zm-63 -37l119 -226c2,-16 9,-47 -3,-58 -8,-8 -57,24 -66,38l-98 224c16,7 32,14 48,22zm-56 -25c16,-38 30,-75 46,-113 7,-21 8,-28 -1,-43 -14,0 -24,4 -42,29l-40 114c12,4 25,8 37,13zm-93 -29c3,-33 11,-59 20,-83 9,21 13,41 11,63l0 0 0 1 0 0 0 0 0 1 -1 0c-2,6 -4,11 -6,17l0 1 0 0 -1 1 0 1 0 0 0 0 -1 1 0 1 0 2c-8,-2 -15,-4 -22,-6zm78 -67c-26,4 -43,34 -56,73 8,2 17,4 25,7l31 -80zm228 231c17,-24 36,-42 54,-57 -3,22 -9,42 -21,60 -6,4 -11,9 -16,13 -6,-5 -12,-11 -17,-16zm97 -15c-24,-9 -52,6 -80,31 6,6 12,13 18,19l62 -50zm-434 -292c9,-15 19,-25 32,-21 6,8 9,26 12,47l-20 116c-13,-3 -26,-6 -39,-8l15 -134zm-2 -123c-17,-28 -42,-84 -66,0l-7 250c17,1 33,3 49,5 8,-87 29,-217 24,-255zm-78 -167c-3,-11 -25,-52 -42,-53l0 469 0 0c11,0 22,0 33,0l9 -416zm605 892l0 13 2 9c36,-7 63,-21 74,-50 -25,10 -51,19 -76,28zm-1072 718l-81 111c-10,5 -24,12 -30,6 -8,-17 -5,-34 13,-62 21,-28 47,-54 68,-81 10,9 20,18 30,26zm-203 -281c-42,19 -85,38 -128,57 -10,-1 -26,-2 -29,-10 2,-18 13,-31 43,-47 33,-14 68,-24 101,-38 4,13 8,26 13,38zm4 9c-74,34 -150,66 -224,100 -21,17 -38,54 -38,65 8,13 40,13 55,9l226 -131c-7,-14 -14,-28 -19,-43zm26 58c-121,66 -243,134 -363,200 -14,20 -40,55 -35,68 7,11 42,12 66,8 121,-75 244,-145 365,-219 -12,-18 -23,-37 -33,-57zm37 63l-217 139c-9,13 -31,36 -26,51 3,12 61,8 76,0l198 -147c-11,-14 -21,-28 -31,-43zm36 49c-34,25 -64,52 -98,77 -16,15 -20,21 -20,38 13,7 23,9 51,-5 31,-26 62,-53 92,-79 -8,-10 -17,-20 -25,-31zm108 108c-47,65 -97,130 -143,196 -10,25 -7,65 -2,75 14,7 42,-9 53,-19l130 -223c-13,-9 -26,-19 -38,-29zm52 37c-72,117 -144,236 -216,352 -2,24 -7,67 4,76 11,7 42,-10 60,-26 68,-123 140,-245 209,-368 -20,-11 -39,-22 -57,-34zm63 37l-119 226c-2,16 -9,47 3,58 8,8 57,-24 66,-38l99 -224c-17,-7 -33,-14 -49,-22zm56 25c-16,38 -30,75 -46,113 -7,21 -8,29 1,43 15,0 25,-4 42,-29l41 -114c-13,-4 -26,-8 -38,-13zm93 29c-3,33 -11,59 -20,83 -9,-20 -13,-41 -11,-63l0 0 0 -1 0 0 0 0 0 -1 1 0c2,-6 4,-11 6,-17l0 -1 1 0 0 -1 0 -1 0 0 0 0 1 -1 0 0 0 -2c8,1 15,3 22,5zm-78 68c26,-5 43,-35 56,-73 -8,-3 -17,-5 -25,-8l-31 81zm-228 -232c-17,25 -36,42 -54,57 3,-22 9,-42 21,-60 6,-4 11,-8 16,-13 6,6 12,11 17,16zm-96 15c23,9 51,-6 79,-31 -6,-6 -12,-13 -18,-19l-61 50zm433 292c-9,15 -19,25 -32,21 -6,-8 -9,-26 -12,-46l20 -116c13,2 26,5 39,7l-15 134zm3 123c16,28 41,85 65,0l7 -250c-17,-1 -33,-3 -49,-5 -8,87 -29,217 -23,255zm77 167c3,11 25,52 42,53l0 -468 0 0c-11,0 -22,-1 -33,-1l-9 416zm-605 -892l0 -13 -2 -9c-36,7 -63,21 -74,50 25,-10 51,-19 76,-28zm1072 325l81 111c10,5 24,12 30,6 8,-17 5,-34 -13,-62 -21,-28 -47,-54 -68,-81 -10,9 -20,18 -30,26zm203 -281c42,19 85,38 128,57 11,-1 26,-2 29,-10 -2,-18 -13,-31 -43,-47 -32,-14 -68,-24 -101,-38 -4,13 -8,26 -13,38zm-4 9c74,34 150,66 224,100 21,17 38,54 39,65 -9,13 -41,13 -56,9l-226 -131c7,-14 14,-28 19,-43zm-26 58c121,66 243,134 363,200 14,20 40,55 35,68 -7,11 -42,12 -66,8 -121,-75 -244,-145 -365,-219 12,-18 23,-37 33,-57zm-37 63l218 139c8,13 30,36 25,51 -3,12 -61,8 -76,0l-198 -147c11,-14 21,-28 31,-43zm-35 49c33,25 63,52 97,77 16,15 20,21 20,38 -13,7 -23,9 -51,-5 -31,-26 -62,-53 -92,-79 9,-10 17,-20 26,-31zm-109 108c47,65 97,130 144,196 9,25 6,65 1,75 -14,7 -42,-9 -53,-19l-130 -223c13,-9 26,-19 38,-29zm-52 37c72,117 144,236 216,352 2,24 8,67 -4,76 -11,7 -42,-10 -60,-26 -68,-123 -140,-245 -209,-368 20,-11 39,-22 57,-34zm-63 37l119 226c2,16 9,47 -3,58 -8,8 -57,-24 -66,-38l-98 -224c16,-7 32,-14 48,-22zm-56 25c16,38 30,75 46,113 7,21 8,29 -1,43 -14,0 -24,-4 -42,-29l-40 -114c12,-4 25,-8 37,-13zm-93 29c3,33 11,59 20,83 9,-20 13,-41 11,-63l0 0 0 -1 0 0 0 0 0 -1 -1 0c-2,-6 -4,-11 -6,-17l0 -1 0 0 -1 -1 0 -1 0 0 0 0 -1 -1 0 0 0 -2c-8,1 -15,3 -22,5zm78 68c-26,-5 -43,-35 -56,-73 8,-3 17,-5 25,-8l31 81zm228 -232c17,25 36,42 54,57 -3,-22 -9,-42 -21,-60 -6,-4 -11,-8 -16,-13 -6,6 -12,11 -17,16zm97 15c-24,9 -52,-6 -80,-31 6,-6 12,-13 18,-19l62 50zm-434 292c9,15 19,25 32,21 6,-8 9,-26 12,-46l-20 -116c-13,2 -26,5 -39,7l15 134zm-2 123c-17,28 -42,85 -66,0l-7 -250c17,-1 33,-3 49,-5 8,87 29,217 24,255zm-78 167c-3,11 -25,52 -42,53l0 -468 0 0c11,0 22,-1 33,-1l9 416zm605 -892l0 -13 2 -9c36,7 63,21 74,50 -25,-10 -51,-19 -76,-28z"/>
   <path class="fil1" d="M3167 5754c225,0 389,12 609,13 0,9 -1,18 -1,27l0 0 -672 0c0,-13 48,-42 64,-40zm105 -37c0,9 14,18 40,27l465 10c1,-11 2,-22 4,-33 -147,-17 -297,-30 -444,-48 -32,11 -52,26 -65,44zm515 -30l-312 -56c-17,3 -50,9 -53,21 0,9 16,18 34,27l326 34c2,-9 3,-17 5,-26zm-283 -60l285 54c1,-6 3,-12 5,-18l-219 -48c-31,-5 -54,-1 -71,12zm-337 207c225,0 389,-11 609,-12 0,-9 -1,-18 -1,-28l0 0 -672 0c0,14 48,42 64,40zm105 38c0,-9 14,-19 40,-28l465 -9c1,11 2,22 4,33 -147,16 -297,30 -444,47 -32,-10 -52,-25 -65,-43zm515 29l-312 56c-17,-3 -50,-8 -53,-21 0,-9 16,-18 34,-26l326 -34c2,8 3,17 5,25zm-283 60l285 -54c1,6 3,12 5,18l-219 49c-31,5 -54,1 -71,-13zm1829 -207c-225,0 -389,12 -609,13 0,9 0,18 0,27l0 0 673 0c0,-13 -48,-42 -64,-40zm-105 -37c0,9 -14,18 -40,27l-465 10c-1,-11 -2,-22 -4,-33 147,-17 297,-30 444,-48 32,11 51,26 65,44zm-516 -30l313 -56c17,3 50,9 53,21 0,9 -16,18 -34,27l-326 34c-2,-9 -4,-17 -6,-26zm283 -60l-284 54c-2,-6 -3,-12 -5,-18l218 -48c31,-5 55,-1 71,12zm338 207c-225,0 -389,-11 -609,-12 0,-9 0,-18 0,-28l0 0 673 0c0,14 -48,42 -64,40zm-105 38c0,-9 -14,-19 -40,-28l-465 -9c-1,11 -2,22 -4,33 147,16 297,30 444,47 32,-10 51,-25 65,-43zm-516 29l313 56c17,-3 50,-8 53,-21 0,-9 -16,-18 -34,-26l-326 -34c-2,8 -4,17 -6,25zm283 60l-284 -54c-2,6 -3,12 -5,18l218 49c31,5 55,1 71,-13z"/>
   <path class="fil4" d="M4250 5123c311,0 572,211 649,497l-193 43c2,6 3,12 5,18l194 -37 2 9 -195 34c2,9 4,17 6,26l196 -21 1 8c-66,7 -131,14 -196,21 2,11 3,22 4,33l197 -4c0,4 1,9 1,13 -63,2 -127,4 -197,4 0,9 0,18 0,27l0 0 198 0 -198 0 0 0c0,10 0,19 0,28 70,0 134,1 197,3 0,5 -1,9 -1,14l-197 -4c-1,11 -2,22 -4,33 65,7 130,14 196,21l-1 7 -196 -20c-2,8 -4,17 -6,25l195 35 -2 8 -194 -37c-2,6 -3,12 -5,18l193 43c-77,287 -338,498 -649,498 -311,0 -572,-211 -649,-498l193 -43c-2,-6 -4,-12 -5,-18l-194 37 -2 -8 194 -35c-2,-8 -3,-17 -5,-25l-196 20 -1 -7c65,-7 131,-14 196,-21 -2,-11 -3,-22 -4,-33l-197 4c0,-5 -1,-9 -1,-14 63,-2 127,-3 197,-3 0,-9 -1,-18 -1,-28l0 0 -197 0 197 0 0 0c0,-9 1,-18 1,-27 -70,0 -134,-2 -197,-4 0,-4 1,-9 1,-13l197 4c1,-11 2,-22 4,-33 -65,-7 -131,-14 -196,-21l1 -8 196 21c2,-9 3,-17 5,-26l-194 -34 2 -9 194 37c1,-6 3,-12 5,-18l-193 -43c77,-286 338,-497 649,-497zm0 197c262,0 474,212 474,474 0,262 -212,475 -474,475 -262,0 -474,-213 -474,-475 0,-262 212,-474 474,-474z"/>
   <circle class="fil2" cx="4250" cy="5794" r="496"/>
   <path class="fil5" d="M4996 6782c34,-8 64,5 100,32 76,-31 153,77 72,140 10,27 3,60 -10,86 -48,7 -95,1 -144,-2 21,-39 36,-74 49,-113 -46,-15 -90,-18 -132,-17 13,-42 37,-84 65,-126zm217 -197c29,-13 59,-6 95,14 63,-42 150,45 87,118 14,24 13,55 6,82 -42,14 -86,17 -130,22 13,-40 21,-74 26,-113 -44,-6 -83,-2 -121,6 2,-41 7,-85 37,-129zm155 -222c26,-18 56,-17 95,-5 55,-50 155,16 106,95 18,21 23,50 20,77 -39,21 -81,31 -123,44 5,-39 7,-73 5,-111 -44,2 -82,13 -117,28 -3,-40 3,-83 14,-128zm98 -241c20,-24 48,-31 88,-30 37,-61 150,-27 126,59 22,14 35,40 39,65 -30,30 -67,51 -103,74 -6,-38 -14,-70 -26,-104 -41,14 -73,34 -102,57 -14,-36 -20,-77 -22,-121zm47 -266c14,-27 40,-40 78,-47 23,-68 137,-58 131,31 24,9 41,32 51,55 -23,36 -54,64 -83,94 -14,-36 -28,-65 -46,-95 -36,21 -63,48 -85,76 -20,-32 -34,-71 -46,-114zm-8 -256c7,-29 27,-48 61,-65 5,-70 112,-88 128,-1 24,2 45,20 59,40 -12,40 -34,74 -54,110 -21,-31 -41,-56 -64,-81 -28,30 -47,62 -62,95 -26,-26 -48,-60 -68,-98zm-852 -1012c-21,-19 -27,-44 -24,-80 -56,-35 -19,-133 59,-108 14,-19 39,-29 62,-32 26,29 44,62 64,94 -35,4 -65,10 -97,19 11,36 29,66 49,93 -34,10 -73,13 -113,14zm256 123c-15,-24 -13,-50 -1,-83 -43,-50 18,-133 87,-88 18,-15 45,-17 68,-14 18,35 26,71 36,108 -35,-6 -65,-9 -98,-9 0,39 9,72 21,103 -35,1 -74,-7 -113,-17zm226 174c-10,-27 -3,-53 15,-84 -34,-58 43,-132 104,-73 21,-11 48,-9 71,-1 11,38 12,77 16,116 -35,-13 -64,-21 -97,-27 -7,38 -5,74 1,107 -35,-6 -72,-20 -110,-38zm177 205c-3,-29 10,-52 36,-77 -17,-65 78,-114 120,-41 24,-5 49,5 69,18 0,40 -9,78 -17,116 -29,-21 -55,-38 -85,-53 -17,36 -25,70 -28,104 -33,-15 -64,-39 -95,-67zm125 244c1,-29 18,-51 48,-72 -7,-69 94,-104 125,-24 24,-2 48,12 65,28 -6,41 -21,77 -34,116 -26,-27 -49,-47 -77,-67 -22,34 -35,67 -43,102 -30,-21 -58,-50 -84,-83z"/>
   <path class="fil6" d="M2730 7179l183 -189 57 55 -91 162 159 -96 57 55 -183 190 -35 -35 144 -149 -182 113 -37 -35 107 -185 -144 149 -35 -35zm583 445l-50 -29 10 -63 -91 -53 -49 41 -49 -28 220 -177 49 28 -40 281zm-32 -139l17 -103 -80 67 63 36zm235 226l86 -249 50 17 -38 110 140 -75 68 23 -128 65 47 186 -65 -22 -29 -141 -54 28 -26 75 -51 -17zm676 139l-57 -5 -17 -62 -105 -9 -27 58 -57 -5 125 -254 56 5 82 272zm-88 -113l-28 -100 -43 94 71 6zm284 26l50 -13c6,17 14,29 24,35 11,7 24,9 40,7 17,-2 29,-8 37,-16 7,-8 10,-17 9,-27 -1,-6 -3,-11 -8,-15 -4,-4 -11,-7 -20,-8 -6,-2 -21,-4 -44,-6 -29,-3 -50,-9 -62,-18 -18,-12 -29,-28 -32,-49 -1,-13 1,-26 6,-39 6,-12 16,-23 29,-31 13,-8 30,-13 50,-16 33,-5 58,-1 77,11 18,12 30,31 34,55l-53 9c-4,-13 -10,-22 -18,-27 -8,-5 -20,-6 -35,-4 -15,2 -26,7 -34,14 -5,5 -7,11 -6,18 1,6 4,11 10,14 8,5 24,9 51,11 26,3 46,6 59,11 13,5 24,12 33,22 8,11 14,24 16,40 2,15 0,30 -7,44 -6,14 -17,26 -31,34 -14,9 -33,15 -55,18 -33,4 -60,0 -79,-12 -20,-13 -34,-34 -41,-62zm413 -76l47 -22c9,15 19,25 31,30 11,5 25,4 40,-1 16,-6 27,-13 33,-23 6,-9 7,-19 4,-28 -2,-6 -6,-10 -10,-13 -5,-3 -12,-5 -22,-5 -7,0 -21,1 -44,3 -29,3 -51,1 -65,-5 -20,-9 -33,-23 -40,-43 -4,-12 -5,-25 -2,-39 4,-14 11,-25 23,-36 11,-10 26,-19 46,-25 31,-11 57,-12 77,-4 21,9 35,24 44,47l-50 19c-7,-12 -14,-20 -23,-23 -9,-3 -21,-2 -35,3 -14,5 -25,11 -31,20 -4,6 -4,12 -2,19 2,5 6,10 12,12 9,3 26,4 52,1 27,-3 47,-3 61,-1 13,2 25,8 36,16 10,9 18,21 23,36 5,15 6,29 2,45 -3,15 -11,28 -24,39 -12,11 -29,20 -51,28 -31,10 -58,12 -80,3 -22,-9 -39,-27 -52,-53zm645 -221l-48 31 -52 -38 -88 58 14 62 -47 31 -58 -277 47 -30 232 163zm-139 -34l-83 -62 23 101 60 -39zm310 -106l-183 -189 80 -78c21,-19 37,-32 49,-37 13,-6 26,-7 40,-3 14,3 26,10 37,21 14,15 21,30 22,48 0,17 -7,35 -21,53 13,-3 25,-4 36,-4 11,1 28,4 51,10l59 15 -46 44 -67 -15c-24,-5 -40,-8 -47,-8 -7,0 -14,1 -19,3 -6,3 -13,8 -22,17l-7 7 76 79 -38 37zm-67 -146l28 -27c18,-18 29,-30 32,-36 3,-6 4,-12 3,-18 -1,-6 -4,-12 -10,-18 -6,-6 -13,-10 -20,-11 -7,0 -14,2 -21,7 -4,2 -14,11 -29,26l-30 29 47 48z"/>
   <path class="fil5" d="M2520 6443l33 103 109 0 -88 64 34 103 -88 -64 -88 64 34 -103 -88 -64 108 0 34 -103zm3449 0l34 103 109 0 -89 64 34 103 -88 -64 -88 64 34 -103 -88 -64 109 0 33 -103z"/>
   <circle class="fil5" cx="4250" cy="5794" r="476"/>
   <path class="fil1" d="M3950 5426c8,-6 16,-13 25,-18l-12 -18c-9,6 -18,13 -26,20l13 16zm-27 24c6,-6 12,-11 19,-17l-14 -16c-7,6 -13,12 -19,18l14 15zm-15 15c3,-3 6,-7 10,-10l-15 -15c-4,3 -7,7 -11,11l16 14zm-24 27c6,-8 12,-14 19,-21l-16 -15c-6,7 -13,15 -19,22l16 14zm-23 31c6,-9 12,-17 19,-26l-17 -13c-7,9 -14,18 -20,27l18 12zm-34 57c7,-15 15,-29 24,-43l-18 -12c-9,15 -18,30 -26,45l20 10zm-20 44c4,-10 8,-19 12,-29l-19 -9c-5,10 -9,20 -13,31l20 7zm-11 30c2,-6 5,-13 7,-19l-20 -8c-3,7 -5,14 -7,21l20 6zm227 -301c-16,9 -32,18 -46,27l12 18c14,-9 28,-18 43,-26l-9 -19zm45 -20c-10,4 -20,8 -30,13l9 19c9,-4 19,-9 29,-12l-8 -20zm37 -13c-9,3 -18,6 -27,9l8 20c8,-3 16,-6 25,-9l-6 -20zm23 -6c-6,1 -11,2 -16,4l6 20c5,-1 10,-3 15,-4l-5 -20zm35 -8c-10,2 -19,4 -28,6l5 20c9,-2 17,-3 26,-5l-3 -21zm43 -6c-12,1 -24,3 -36,5l4 21c11,-2 22,-4 34,-5l-2 -21zm41 -2c-8,0 -16,1 -24,1l1 21c8,0 16,0 23,0l0 -22zm29 970c-8,1 -16,1 -23,1l0 21c8,0 16,0 24,0l-1 -22zm50 -5c-11,2 -22,3 -34,4l2 21c12,-1 24,-2 36,-4l-4 -21zm34 -7c-9,2 -17,4 -26,6l3 21c10,-2 19,-4 28,-6l-5 -21zm22 -6c-5,2 -10,3 -15,4l5 21c6,-1 11,-3 16,-4l-6 -21zm32 -10c-8,3 -16,5 -25,8l6 20c9,-2 18,-5 27,-8l-8 -20zm39 -17c-9,5 -19,9 -29,13l8 20c10,-4 20,-9 30,-13l-9 -20zm58 -33c-14,10 -28,18 -43,26l9 19c16,-8 32,-17 46,-27l-12 -18zm39 -28c-8,7 -16,13 -25,19l12 18c9,-7 18,-14 26,-20l-13 -17zm27 -23c-6,5 -13,11 -19,16l14 16c7,-5 13,-11 19,-17l-14 -15zm15 -16c-3,3 -7,7 -10,10l15 16c3,-4 7,-8 11,-11l-16 -15zm24 -26c-6,7 -12,14 -19,21l16 14c6,-7 13,-14 19,-22l-16 -13zm23 -31c-6,8 -12,17 -19,25l17 14c7,-9 14,-18 20,-27l-18 -12zm34 -57c-7,15 -15,29 -24,43l17 12c10,-15 19,-30 27,-46l-20 -9zm20 -45c-4,10 -8,20 -12,30l19 9c5,-10 9,-21 13,-32l-20 -7zm11 -30c-2,7 -5,13 -7,20l20 7c3,-7 5,-14 7,-21l-20 -6zm-754 228c8,7 16,13 25,19l-12 18c-9,-7 -18,-13 -26,-20l13 -17zm-27 -23c6,5 12,11 19,16l-14 17c-7,-6 -13,-12 -19,-18l14 -15zm-15 -16c3,4 6,7 10,10l-15 16c-4,-4 -7,-8 -11,-11l16 -15zm-24 -26c6,7 12,14 19,21l-16 14c-6,-7 -13,-14 -19,-22l16 -13zm-23 -31c6,8 12,17 19,25l-17 14c-7,-9 -14,-18 -20,-27l18 -12zm-34 -57c7,15 15,29 24,43l-18 12c-9,-15 -18,-30 -26,-46l20 -9zm-20 -45c4,10 8,20 12,30l-19 9c-5,-10 -9,-21 -13,-31l20 -8zm-11 -30c2,7 5,13 7,20l-20 7c-3,-7 -5,-14 -7,-21l20 -6zm227 301c-16,-8 -32,-17 -46,-27l12 -17c14,9 28,17 43,25l-9 19zm45 21c-10,-4 -20,-9 -30,-13l9 -19c9,4 19,8 29,12l-8 20zm37 13c-9,-3 -18,-6 -27,-9l8 -20c8,3 16,6 25,8l-6 21zm23 6c-6,-1 -11,-3 -16,-4l6 -21c5,2 10,3 15,4l-5 21zm35 8c-10,-2 -19,-4 -28,-6l5 -21c9,2 17,4 26,6l-3 21zm43 5c-12,-1 -24,-2 -36,-4l4 -21c11,2 22,3 34,4l-2 21zm41 2c-8,0 -16,0 -24,0l1 -22c8,1 16,1 23,1l0 21zm29 -970c-8,0 -16,0 -23,0l0 -22c8,0 16,1 24,1l-1 21zm50 6c-11,-2 -22,-3 -34,-4l2 -22c12,1 24,3 36,5l-4 21zm34 7c-9,-3 -17,-4 -26,-6l3 -21c10,2 19,4 28,6l-5 21zm22 5c-5,-1 -10,-2 -15,-4l5 -20c6,1 11,2 16,4l-6 20zm32 11c-8,-3 -16,-6 -25,-8l6 -21c9,3 18,6 27,9l-8 20zm39 16c-9,-4 -19,-8 -29,-12l8 -20c10,4 20,8 30,13l-9 19zm58 33c-14,-9 -28,-18 -43,-25l9 -20c16,9 32,18 46,27l-12 18zm39 28c-8,-6 -16,-12 -25,-18l12 -18c9,6 18,13 26,20l-13 16zm27 24c-6,-6 -13,-11 -19,-17l14 -16c7,6 13,12 19,18l-14 15zm15 16c-3,-4 -7,-7 -10,-11l15 -15c3,3 7,7 11,11l-16 15zm24 26c-6,-7 -12,-14 -19,-21l16 -15c6,7 13,15 19,22l-16 14zm23 31c-6,-9 -12,-17 -19,-26l17 -13c7,9 14,18 20,27l-18 12zm34 57c-7,-15 -15,-29 -24,-43l17 -12c10,15 19,30 27,45l-20 10zm20 44c-4,-10 -8,-19 -12,-29l19 -9c5,10 9,20 13,31l-20 7zm11 30c-2,-6 -5,-13 -7,-19l20 -8c3,7 5,14 7,21l-20 6z"/>
   <path class="fil6" d="M2221 6038l-4 -61 163 -11c25,-2 42,-4 50,-6 12,-3 21,-10 28,-20 7,-10 9,-24 8,-41 -1,-17 -5,-29 -13,-37 -8,-9 -17,-13 -27,-14 -10,-1 -27,-1 -51,1l-166 11 -5 -61 158 -11c36,-2 62,-2 77,0 15,2 28,7 39,15 11,8 20,20 27,34 7,14 11,33 13,57 2,28 0,50 -5,65 -6,16 -14,28 -24,37 -10,10 -20,16 -32,20 -17,5 -42,8 -76,11l-160 11zm287 -307l-300 -26 5 -59 212 -105 -201 -18 5 -56 300 26 -6 61 -207 104 197 17 -5 56zm30 -279l-296 -52 10 -60 297 52 -11 60zm39 -170l-319 4 21 -63 236 1 -187 -142 21 -61 250 199 -22 62zm56 -178l-266 -141 105 -196 45 23 -76 143 59 32 70 -133 45 24 -70 132 72 39 78 -148 45 24 -107 201zm122 -233l-244 -177 76 -103c18,-26 34,-43 47,-52 13,-9 28,-12 44,-11 17,1 32,6 46,17 19,13 30,29 34,49 4,19 0,41 -12,64 13,-6 27,-10 39,-11 12,-2 32,-1 60,1l69 4 -43 59 -79 -3c-28,-1 -46,-1 -54,0 -8,1 -15,3 -21,7 -6,4 -13,12 -21,23l-7 10 102 74 -36 49zm-105 -151l27 -36c17,-24 26,-39 29,-47 2,-7 2,-14 -1,-21 -2,-7 -7,-13 -14,-18 -9,-6 -17,-9 -25,-8 -8,1 -16,5 -23,11 -3,4 -12,16 -27,36l-28 38 62 45zm189 -133l37 -47c17,11 32,16 47,15 14,-2 27,-9 40,-22 14,-14 21,-28 22,-40 1,-13 -3,-24 -11,-31 -5,-5 -11,-8 -17,-8 -7,-1 -15,1 -25,6 -6,4 -21,12 -43,26 -28,18 -51,27 -69,28 -24,2 -45,-5 -63,-22 -11,-11 -18,-24 -22,-39 -3,-16 -2,-32 4,-48 7,-17 18,-34 34,-50 26,-27 52,-42 77,-44 25,-2 48,6 69,25l-41 45c-13,-9 -25,-12 -35,-11 -11,1 -23,8 -34,20 -13,13 -19,25 -21,38 -1,7 1,14 7,19 5,5 11,7 19,7 10,-1 28,-10 53,-26 26,-17 46,-27 61,-32 16,-5 31,-6 45,-3 15,3 30,12 43,25 13,12 21,26 25,44 4,17 3,35 -4,52 -7,18 -19,36 -38,55 -26,27 -53,42 -79,45 -27,2 -54,-7 -81,-27zm267 -126l-197 -227 46 -40 197 227 -46 40zm131 -104l-143 -205 -73 51 -29 -42 195 -137 30 42 -73 51 143 205 -50 35zm353 -203l-58 30 -55 -49 -107 54 9 73 -58 29 -32 -321 57 -29 244 213zm-153 -56l-88 -80 14 118 74 -38zm123 -35l54 -23c10,17 21,29 34,34 14,6 29,6 47,0 18,-6 31,-14 38,-25 6,-11 8,-22 5,-32 -2,-7 -6,-12 -12,-16 -5,-3 -14,-5 -25,-5 -7,-1 -24,0 -50,2 -33,2 -58,0 -74,-7 -22,-10 -37,-27 -45,-50 -5,-14 -5,-29 -1,-45 4,-15 13,-29 26,-40 14,-12 31,-21 53,-28 36,-12 66,-13 89,-3 23,10 39,28 49,55l-57 20c-8,-14 -16,-22 -26,-26 -11,-4 -24,-4 -40,2 -17,5 -28,13 -36,23 -4,6 -5,13 -3,21 2,6 7,11 14,14 10,4 29,5 60,2 30,-2 53,-2 68,1 16,2 30,9 41,19 12,9 21,23 27,41 5,17 5,34 1,51 -5,17 -14,32 -28,44 -15,13 -34,23 -59,31 -36,12 -67,13 -92,2 -24,-10 -44,-31 -58,-62zm407 -18l-21 -300 91 -6 68 201 39 -209 91 -6 21 300 -56 4 -17 -236 -42 240 -59 4 -75 -232 16 236 -56 4zm353 -317l60 5 -11 162c-2,26 -2,43 -1,51 1,12 7,22 16,30 9,9 22,13 39,14 17,2 30,-1 39,-8 9,-6 15,-14 17,-24 3,-10 5,-27 7,-51l11 -166 61 4 -11 158c-2,36 -6,61 -10,76 -5,15 -11,27 -21,36 -9,10 -22,17 -37,22 -15,5 -34,7 -58,5 -29,-2 -50,-6 -64,-14 -15,-8 -26,-17 -33,-28 -8,-12 -13,-23 -15,-35 -3,-17 -3,-43 -1,-76l12 -161zm262 328l83 -289 58 16 -32 114 113 33 33 -114 59 17 -83 289 -59 -17 36 -126 -113 -33 -37 127 -58 -17zm522 190l-60 -27 4 -73 -110 -49 -51 52 -59 -26 229 -227 59 26 -12 324zm-53 -155l7 -118 -83 85 76 33zm65 163l172 -247 75 52 -73 199 161 -137 75 52 -173 247 -46 -32 136 -195 -185 160 -48 -33 88 -228 -136 194 -46 -32zm272 189l217 -209 63 65 -110 182 185 -104 63 65 -216 209 -39 -40 170 -165 -212 122 -40 -42 129 -207 -171 164 -39 -40zm383 462l-39 -53 40 -61 -71 -98 -70 20 -38 -52 312 -82 38 52 -172 274zm31 -160l65 -100 -114 33 49 67zm244 48l46 100c11,23 17,41 19,54 3,18 1,36 -6,53 -6,17 -17,33 -32,47 -14,14 -34,27 -60,39 -22,10 -43,16 -62,18 -23,3 -43,0 -62,-6 -13,-6 -27,-15 -39,-29 -10,-10 -19,-26 -29,-46l-48 -103 273 -127zm-21 76l-180 85 19 40c7,16 13,26 18,32 6,8 14,14 22,17 8,4 19,4 33,2 14,-2 31,-8 52,-17 21,-10 36,-20 46,-29 10,-9 16,-18 19,-27 3,-10 4,-21 1,-32 -2,-8 -8,-24 -18,-46l-12 -25zm-135 311l284 -98 20 57 -285 98 -19 -57zm49 172l124 -29 145 -146 16 69 -100 96 131 41 16 68 -195 -68 -123 28 -14 -59zm57 408l-6 -65 66 -32 -11 -121 -70 -18 -6 -65 310 90 6 65 -289 146zm109 -121l107 -52 -114 -31 7 83zm-110 132l300 21 -4 61 -118 -8 -9 118 119 8 -5 61 -300 -21 4 -61 132 10 8 -119 -131 -9 4 -61z"/>
   <path class="fil1" d="M4240 5280l0 3c12,0 52,-6 52,-15 -1,-4 -2,-4 -5,-8l-47 20zm15 -92l0 13 10 62 8 -1 -5 -64c-1,-7 -4,-9 -9,-11l-4 1zm460 332c21,-2 81,-44 81,-59l-5 0c-1,1 -36,24 -40,27 -9,7 -36,21 -36,32zm-393 -353c3,2 3,3 7,3l4 -1c10,0 32,-9 32,-15 -1,-5 -4,-5 -7,-7l-36 20zm115 27c0,3 2,6 5,5 6,0 1,-1 10,-4l-6 12c5,1 17,1 16,-7l-1 -10c0,-4 -4,-7 -8,-6l-2 0c-7,0 -14,4 -14,10zm49 3c2,5 12,8 19,7l11 0 18 -4c0,-3 3,-10 -3,-9l-45 6zm-54 35c1,7 2,15 9,15l6 -1c-1,-12 -2,-12 -11,-15l-4 1zm162 9c1,12 8,13 -11,10 -11,-1 -13,-6 -22,-7 2,12 20,21 35,20l2 0c6,-1 17,-12 17,-18l-1 -6c0,-4 -4,-7 -8,-7l-5 0c-4,1 -8,4 -7,8zm-320 -73c1,14 61,60 66,84 -6,2 -24,17 -23,20 0,10 6,19 15,18 5,0 18,-11 20,-16 5,-13 -3,-12 8,-25 8,-9 26,-31 25,-46l-3 -31 -4 -2 -6 2 1 10c1,19 -14,56 -28,58 -2,-13 -60,-76 -72,-78l1 6zm212 130l2 6c12,-4 25,-51 24,-66l-2 -21 -6 1c-8,0 -8,32 -9,40 -3,13 -9,22 -9,40zm-108 -22c2,20 17,29 32,37l26 0c19,1 28,-25 36,-35l-9 -33 -7 2 1 23c1,11 -9,19 -16,24 -17,11 -11,4 -35,6 -6,-3 -15,-10 -15,-20l-1 -3c0,-6 8,-34 10,-39 -13,2 -23,25 -22,38zm335 80c1,-2 4,-5 4,-6 -1,-7 -52,-13 -65,-13 12,14 45,16 61,19zm57 22c0,6 2,5 8,5 -1,7 -3,5 -3,8 0,3 3,4 6,3l2 0c5,0 8,-4 8,-8l-1 -6c0,-5 -6,-7 -12,-6l-2 0c-4,0 -6,1 -6,4zm-23 28l1 4c0,4 2,5 6,5l2 0c5,0 6,-2 6,-6l0 -2c-1,-6 -7,-7 -11,-9 -2,4 -4,4 -4,8zm-31 6c2,4 2,11 6,11 4,0 8,-4 8,-6 -1,-9 -4,-10 -11,-11l-3 6zm24 29c4,-1 4,-2 8,-5 -4,-6 -1,-11 -9,-10 -12,0 -2,15 1,15zm85 16l6 -2 -1 -7 -42 -15c5,12 25,19 37,24zm-267 -181l-2 8 12 8 0 38c-15,-8 -7,-5 -23,-4 -6,1 -29,-6 -29,-11 -1,-14 6,-14 6,-27 -10,1 -19,16 -19,24 2,19 32,26 47,25l14 -1 1 8c2,22 27,34 50,34 -1,11 -6,9 -5,15 1,16 12,29 25,34 11,-6 9,-7 8,-23 4,-3 3,-4 8,-4 21,-2 23,9 33,11 0,9 -12,19 -11,31l0 1c0,10 11,16 21,18 -1,9 4,22 14,21l6 0c10,-1 25,-23 25,-30 0,-2 -3,-4 -5,-4 -7,1 -10,16 -22,23 -2,-2 -7,-6 -7,-7 -1,-8 9,-9 9,-18 -1,-9 -15,3 -18,3 -8,1 -10,-6 -12,-12 5,-9 15,-20 15,-27 -1,-9 -29,-25 -39,-24 -30,2 -21,15 -30,23l-8 -17c11,-23 30,-11 24,-32l-22 4 -2 0c-16,1 -44,-8 -45,-21 -1,-14 6,-28 5,-48l0 -2c-1,-11 -10,-16 -18,-19l-6 2zm-458 -79c14,-4 36,-16 35,-29 0,-4 -2,-5 -6,-5 -6,0 -27,29 -29,34zm95 -22l0 25c12,-2 12,-21 11,-33 0,-6 -2,-13 -9,-13l-6 1c1,9 4,13 4,20zm-295 66c10,-2 37,-18 37,-27l-1 -2c0,-3 -1,-5 -4,-5 -5,0 -31,30 -32,34zm45 3l-9 -2 -3 4 -11 -2c-1,6 1,17 12,16 7,-1 24,-8 23,-15 0,-7 -5,-12 -13,-12l1 11zm193 -5c4,5 2,-1 3,6l0 2 0 4 -16 6 13 -18zm83 -69l1 1 11 70c-9,13 -22,24 -45,25l-5 1c-22,1 -36,-19 -37,-39l-2 -21 -4 0 0 -5 -8 0c-3,15 -1,17 -8,30 -4,8 -13,16 -13,25 2,24 32,7 39,4 4,11 22,20 36,19l5 -1c27,-2 55,-17 54,-41 -1,-18 -7,-71 -23,-74 -1,2 -1,2 -1,6zm-183 39l1 6c0,6 14,31 18,39 4,10 10,37 22,37 0,-8 2,-4 1,-11 0,-11 -12,-31 -16,-42 -5,-12 -12,-35 -26,-29zm19 112c13,-2 43,-20 43,-31 -1,-2 -3,-4 -5,-4 -4,0 -35,31 -38,35zm-88 -26c0,0 -43,-15 -49,-17 -8,-3 -45,-16 -51,-16 2,16 28,21 44,26 11,4 16,4 26,8 8,3 20,9 27,11l-1 18c0,11 11,22 20,22 8,-1 16,-11 16,-17l-1 -1c0,-10 -11,-20 -16,-26 -1,-13 9,-41 13,-53 4,-12 18,-48 -3,-47l-25 92zm-209 69c8,-2 27,-27 26,-34 0,-4 -2,-5 -6,-5 -7,1 -20,31 -20,39zm40 -2l-7 0 0 7 -10 5c3,3 5,7 11,7l2 0c4,-1 16,-13 15,-16l0 -4c-1,-7 -5,-7 -13,-7l2 8zm59 -46c1,13 52,51 55,60 20,-3 -10,-29 -15,-34 -7,-7 -24,-31 -35,-30 -3,0 -6,1 -5,4zm-99 173l1 -13c3,0 6,0 6,3 1,6 -2,8 -7,10zm73 -135c0,6 69,59 33,61l-6 1c-13,1 -29,-31 -51,-34 1,12 11,18 18,27 -4,9 -2,23 -9,39 -4,8 -13,26 -25,27 -25,2 -40,-31 -51,-30l-4 0c-12,1 3,15 4,30 1,13 1,32 15,31 12,-1 21,-13 23,-22 6,0 7,1 14,1l8 -1c21,-1 40,-44 38,-67 5,3 13,9 21,8l12 -1c10,0 17,-17 16,-27 0,-7 -44,-50 -48,-50l-9 1 1 6zm-147 84l0 1c1,6 2,6 3,10 3,0 6,1 6,1 4,0 8,-3 12,-4l-11 34c16,-1 23,-20 21,-35 0,-9 -11,-16 -21,-16l-2 1c-5,0 -8,3 -8,8z"/>
   <path class="fil1" d="M3767 6001c7,-1 21,-12 20,-17l0 -2c0,-4 -1,-4 -2,-8l-14 1c-6,1 -4,4 -6,9l4 6c-14,1 -29,-15 -32,-24l-4 0c1,16 10,37 34,35zm-115 41l1 5 7 -1c5,0 7,-5 13,-7 -1,-3 -1,-5 -5,-5 -7,1 0,0 -5,2 -2,-1 -2,-1 -6,-1 -2,0 -5,4 -5,7zm156 15c1,7 17,17 21,23l5 -3 10 15 -18 -34 3 9 -18 -16c-2,3 -3,3 -3,6zm-21 16l1 5c0,6 12,16 18,16 6,-1 8,-3 9,-7l-10 -1 -1 -11 -5 1 2 -10 -5 -1c-4,2 -9,3 -9,8zm945 -83l4 16 1 12c7,-2 8,-12 8,-19l-1 -9c-1,-3 -2,-5 -5,-5 -4,1 -5,3 -7,5zm-16 74l3 0c0,-9 8,-16 7,-29 -1,-4 -2,-5 -6,-4 -8,1 -4,27 -4,33zm-1008 -30c-5,1 -14,-7 -17,-13l21 9c0,3 1,4 -4,4zm-34 -16c6,9 7,25 23,25 -2,13 -16,19 -5,40 5,8 24,23 35,25 -2,8 -16,11 -15,25 1,10 11,20 23,19l13 -1c0,0 29,-13 32,-15 12,-6 24,-6 23,-20l-6 1c-5,0 -37,22 -60,23 -5,1 -11,-5 -12,-10 -2,-21 55,-29 58,-42 -16,1 -40,11 -40,11 -13,1 -42,-20 -43,-31 -2,-15 11,-24 21,-30 15,-9 36,0 40,-19 -11,-1 -27,1 -37,-1 -6,-1 -23,-12 -28,-11l-6 0c-11,1 -10,7 -16,11zm1104 -6c-1,-7 9,-9 16,-11 1,6 2,3 3,9 0,5 -1,11 -7,12 -4,0 -12,-5 -12,-9l0 -1zm-17 0c5,13 13,17 30,19 18,-10 18,-5 16,-25l0 -6c13,0 16,8 22,14l4 19 1 12c1,12 -4,19 -3,25l0 5 2 1 10 -13 0 -5c-1,-3 2,-4 4,-8l1 -19c0,-8 -6,-17 -7,-26 -7,-8 -20,-16 -37,-14l-2 0c-22,2 -33,9 -41,21zm-23 52c14,0 51,21 75,19 -2,-12 -18,-14 -31,-17 -10,-2 -28,-11 -37,-10l-2 0c-6,0 -5,3 -5,8zm-31 42c3,4 3,6 11,5l6 0 1 -10c-3,-1 -7,-2 -10,-2 -5,0 -7,4 -8,7zm-948 81c1,3 1,7 5,6 12,-1 75,-35 74,-42 0,-4 -1,-2 -2,-6l-8 -1c-1,6 -24,19 -31,23 -5,3 -36,20 -38,20zm976 -77c1,3 2,4 6,4l8 -1c1,-5 3,-4 3,-6 -1,-4 -2,-5 -6,-4l-4 0c-4,0 -7,3 -7,7zm-47 18c4,0 3,-4 3,-6l-5 -4 19 5c-2,-10 -16,-16 -25,-14 -14,3 -6,20 8,19zm37 1c6,1 9,3 12,3 5,-1 3,-1 7,-3l2 -6c-4,-2 -7,-4 -14,-4l-5 1 -2 9zm-842 94c8,-1 12,-9 12,-15l-1 -5c-5,-1 -3,-1 -7,-1 -7,1 -10,4 -11,9 -8,0 -27,-13 -18,-1 3,7 14,14 25,13zm783 -21c7,-3 17,-35 16,-44 -1,-3 -1,-1 -3,-6l-5 1c-9,0 -9,39 -8,49zm97 -101c2,18 26,-3 27,11l0 1c1,5 -3,5 -7,7l-9 -1c-1,5 -2,3 -1,7 0,2 8,4 8,7 1,7 -3,11 -12,12l-2 0c-10,1 -9,-4 -15,-3l-4 0c-13,1 -5,15 -15,22 1,9 -2,12 -1,22 1,12 20,14 37,12 -3,4 -9,7 -15,8 -31,2 -31,-24 -41,-23l-4 0c-6,0 -5,3 -7,7 2,5 7,10 7,15l1 6c1,10 -9,23 -20,24 -9,1 -71,-10 -70,-2 1,8 38,9 48,10 1,12 -7,40 -20,41 -23,2 -19,-13 -34,-13 2,16 19,24 38,22 26,-2 25,-43 29,-47 2,-2 22,-2 32,-11 7,-7 9,-16 14,-24l13 4c22,-2 51,-5 50,-24l-7 -3 -26 2c-3,-1 -10,-5 -11,-9 -1,-10 5,-19 7,-27 7,0 6,2 11,1l21 -4c8,-12 11,0 8,-24 6,-3 14,-11 14,-17l-1 -3c0,-5 -12,-10 -19,-9l-12 1c-6,0 -7,1 -12,2zm-990 147c3,26 41,50 72,47l4 0c14,-1 82,-64 82,-68 -1,-4 -1,-2 -3,-6l-7 0c-2,5 -32,29 -39,36 -12,13 -23,28 -50,24 -20,-3 -38,-12 -46,-28 -5,-10 -7,-17 5,-23 8,-5 18,-11 30,-12l-1 -3 -18 2c-19,1 -31,15 -29,31zm821 -52c5,7 1,17 16,15 4,0 4,-1 7,-3 -3,20 -14,13 -16,25 14,-1 29,-9 28,-20l0 -3c-1,-9 -16,-19 -27,-18l3 -7 -11 11zm-614 72c0,4 1,4 3,8l12 -5 2 2 -14 6 0 5c5,0 5,1 10,1 8,-1 13,-6 12,-12 -1,-10 -9,-10 -20,-10 -1,1 -5,3 -5,5zm556 -2c14,-2 38,-23 37,-33 0,-2 -6,-3 -9,-4l-28 37zm-116 23l-9 6 4 0 1 5c0,5 5,6 11,8l-22 12 0 4c12,-1 37,-9 36,-18l0 -3c-1,-9 -6,-7 -9,-13l48 -19 -1 -1c-22,6 -33,17 -59,19zm-349 19c0,6 5,7 12,7 -2,2 -2,5 -7,5l-10 1c-7,1 -22,-9 -29,-10 5,12 18,20 36,19l4 0c8,-1 17,-9 17,-16 -1,-6 -5,-19 -11,-18 -8,1 -13,6 -12,12zm413 -9c10,-3 32,-19 31,-26 -1,-3 -4,-6 -6,-6 -6,1 -24,28 -25,32zm-370 29c1,8 23,7 34,9l4 -7c-11,-2 -19,-7 -31,-6l-2 0c-3,1 -5,2 -5,4zm53 2c0,4 3,4 6,6l26 -5 3 -9 -17 2c-5,0 -18,2 -18,6zm355 -33l-7 -3 -13 0c-3,2 -5,3 -5,7l0 2c1,6 7,10 12,10l2 -1c5,0 6,-2 7,-5l1 2 17 -10c-4,-6 -1,-10 -13,-11l-1 9zm-568 7c7,3 10,9 11,19 -10,-3 -19,-4 -20,-15l9 -4zm-80 47l8 6c11,-1 32,14 53,10l18 -3 23 -20 -1 -3 49 7c-1,4 -2,3 -1,6 1,10 13,21 24,20l10 0c6,16 10,9 24,13 9,-8 13,-18 11,-34 0,-3 -4,-2 -8,-2l-3 22 -5 2 -6 -1 -3 -4c1,-4 2,-4 2,-8 -1,-2 -5,-4 -7,-5 -2,2 -6,6 -10,6 -8,1 -18,-5 -18,-9l0 -2c-1,-8 10,-7 10,-13l-1 -4c-1,-8 -10,-2 -19,-1l-2 0c-13,1 -32,-4 -45,-6l-1 -11c-2,-15 -9,-22 -22,-26 -9,5 -22,6 -20,20l0 4c2,15 21,15 29,22 -4,6 -12,14 -22,15l-14 1c-21,2 -51,-12 -52,-30l-1 -5c-1,-9 18,-12 18,-24 -56,9 -16,51 -18,57zm294 -10l8 7c11,-3 22,-2 22,-11l-21 2c-3,0 -7,1 -9,2zm360 -27c1,4 6,8 11,7 4,0 5,-1 5,-5 -1,-4 -6,-7 -10,-7 -5,0 -6,2 -6,5zm-195 32l11 1c15,-1 32,-8 38,-16l-6 -5 -43 20zm235 -84c1,5 42,51 46,62 4,-1 6,0 5,-5 -1,-11 -39,-63 -46,-62 -4,0 -5,2 -5,5zm-307 92l12 -1c12,-1 35,-11 39,-18l-2 -4c-2,-1 -5,-1 -6,-1 -5,0 -42,21 -43,24zm45 16l-3 1c-1,-3 -1,-7 -5,-6 -6,0 -4,3 -6,6l-3 -6 -7 1c-1,4 -2,3 -2,6 1,7 6,11 13,10 4,0 4,-1 7,-4l11 1c3,-2 6,-2 5,-6l0 -3c-1,-5 -2,-5 -3,-8l-5 0 -2 8zm-247 48l0 3c47,5 90,-8 86,-51l-1 -10c-1,-4 -2,-4 -3,-7 -21,3 8,29 -21,46 -10,5 -46,16 -61,19zm508 -112c-4,1 -5,2 -5,5 0,5 23,8 14,36 -3,12 -15,27 -30,29l-6 0c-26,2 -22,-12 -32,-22l-3 -17 -4 0c-1,5 -3,10 -3,16 2,17 23,34 43,33l13 -2c8,0 23,-11 27,-16 5,-8 12,-15 10,-28l-1 -9c-1,-9 -15,-25 -23,-25zm-235 97l1 5 -9 0c-1,-5 2,-5 8,-5zm110 -72c-1,-3 4,-4 7,-5l2 4 -2 5c-5,0 -7,1 -7,-4zm-242 26c5,7 23,21 24,31 0,5 -30,26 -45,27 -6,1 -9,-5 -12,-8 2,-3 5,-11 4,-14l0 -5c-1,-4 -2,-4 -6,-4 -2,9 -10,12 -9,21l0 1c1,12 15,23 30,21l2 0c19,-1 36,-23 45,-25 5,6 16,20 28,19l17 -1c16,-1 20,-4 31,-7 4,5 8,10 18,9 21,-2 22,-11 34,-17 8,-4 27,-11 37,-13 13,-3 78,-18 77,-25 0,-3 -4,-6 -6,-9l-59 8 26 -23c2,1 10,5 15,4 2,0 11,-4 10,-8l0 -7c-1,-9 -7,-18 -19,-17 -15,1 -13,44 -83,49l-3 4 9 9 38 0c-1,0 -54,18 -54,18 -3,0 -5,-3 -7,-4l-20 0c-3,0 -19,14 -34,17 -14,2 -32,5 -40,-3 -11,-9 -30,-54 -41,-53 -5,0 -6,3 -7,5z"/>
   <path class="fil7" d="M4353 5397c-5,18 -10,35 -15,53 -48,28 -95,56 -143,84 -48,28 -96,57 -144,85 5,-18 10,-35 15,-53 48,-28 96,-56 144,-84 48,-28 95,-57 143,-85zm-126 4c-5,15 -10,31 -15,47 -52,31 -105,62 -157,94 4,-16 9,-31 14,-47 52,-31 105,-63 158,-94zm274 553c14,-15 31,-19 69,-21 -43,46 -46,95 11,47 -6,67 -90,61 -58,-15 -28,8 -23,3 -22,-11zm-415 -28c5,-16 9,-32 13,-49 20,4 40,7 60,10 -6,20 -11,40 -17,60 -16,-3 -32,-5 -49,-8 -4,16 -9,32 -13,48 -20,-3 -40,-6 -60,-9 6,-20 11,-40 17,-60 16,3 33,5 49,8zm-143 -284c5,-17 10,-35 15,-53 22,4 44,7 65,11 -6,22 -12,44 -18,65 -18,-2 -36,-5 -54,-8 -5,18 -10,35 -15,53 -21,-3 -43,-7 -65,-10 6,-22 12,-44 18,-66 18,3 36,6 54,8zm337 461c7,4 12,10 17,18 5,7 7,15 7,22 0,7 -3,12 -8,16 -6,4 -9,9 -9,15 0,7 2,12 6,15 3,3 8,4 13,4 7,0 13,-3 18,-9 5,-6 8,-13 8,-22 0,-14 -6,-28 -16,-42 -10,-14 -22,-22 -34,-26 -3,-1 -5,0 -5,4 0,2 1,3 3,5zm-219 -302c39,50 82,61 137,25 16,-1 20,35 18,69 -3,43 -60,103 -119,136 -59,32 -120,38 -132,-28 54,-51 12,-179 96,-202zm441 -120c-15,-48 25,-42 41,-16 -14,5 -27,11 -41,16zm-60 -199c-2,4 1,9 4,12 6,5 16,9 22,11 -3,-10 -6,-22 -14,-25 -4,-2 -10,-3 -12,2zm-190 603c-52,37 -104,73 -156,110 3,-15 6,-30 9,-45 54,-37 108,-75 162,-113 -2,9 -4,18 -7,27 -2,12 -5,20 -8,21zm184 -623c3,-5 5,-8 8,-11 10,-10 22,-7 30,3 10,14 12,40 8,55 6,3 12,3 18,3 2,10 4,20 6,31 -10,-2 -20,-3 -30,-5 -3,20 -49,94 -71,114 -5,5 -48,13 -56,9 40,-32 103,-99 110,-127 -32,-14 -40,-39 -23,-72zm-186 98c-2,14 -1,37 13,41 11,4 21,-7 26,-16 7,-13 7,-29 9,-46 3,0 6,-1 8,-2 5,14 6,27 13,35 12,13 24,6 30,-8 5,-15 7,-37 9,-46 2,-2 5,-3 7,-5 1,11 3,27 2,44 0,18 -2,45 -17,57 -14,10 -32,8 -45,-6 -6,10 -13,22 -23,30 -16,13 -37,12 -44,-10 -6,-20 0,-51 4,-65 3,-1 5,-2 8,-3zm209 142c-21,-34 -18,-62 5,-85 20,-16 43,-17 69,-4 34,15 45,30 48,45 2,10 1,25 -3,37 -4,12 -10,14 -20,20 -11,7 -26,14 -31,16 15,24 24,35 36,48 -27,-3 -59,-19 -69,-31 -24,14 -46,28 -61,43 46,12 92,12 130,6 38,-7 68,-19 84,-31 -5,25 -9,50 -14,75 -1,14 -52,12 -112,38 -124,51 -156,130 -134,155 43,27 67,-6 85,5 3,2 5,5 6,7 13,22 26,44 39,66 -50,34 -97,27 -136,4 -38,-23 -69,-61 -85,-89 -15,-27 -30,-54 -45,-82 -52,113 -138,179 -209,189 -71,11 -126,-34 -117,-141 -41,-22 -67,-58 -77,-101 -11,-44 -5,-94 19,-145 3,59 11,110 36,136 19,20 45,26 58,-4 11,-24 18,-64 28,-98 12,-40 35,-70 74,-85 15,-6 26,-4 29,11 -13,46 47,70 78,59 10,-6 -38,-40 -18,-87 6,-19 12,-39 17,-58 31,22 25,60 50,104 12,3 27,-27 42,-51 10,36 3,70 -21,101 13,41 25,82 41,120 16,38 35,72 61,99 10,-43 20,-85 46,-119 -27,1 -49,17 -72,35 -20,-48 -15,-117 28,-149 32,-24 75,-40 115,-59z"/>
  </g>
 </g>
</svg>
